<?xml version="1.0" encoding="UTF-8"?>
<svg version="1.1" xmlns="http://www.w3.org/2000/svg" width="752" height="752">
<path d="M0 0 C1.20215577 -0.09569796 1.20215577 -0.09569796 2.42859751 -0.19332922 C5.10294644 -0.40187175 7.7780282 -0.59737711 10.45350647 -0.79086304 C11.8646041 -0.8960494 11.8646041 -0.8960494 13.30420876 -1.00336075 C32.16275085 -2.39791342 51.0377518 -3.23742394 69.93521786 -3.89106178 C81.92087947 -4.31658075 93.85075359 -4.90102802 105.80213928 -5.91586304 C156.47626626 -10.11433502 202.75940303 -7.58269292 243.50942856 26.15201497 C278.79223407 56.68009869 293.89987418 90.1865954 297.32333195 136.39867283 C299.84733951 173.77645326 298.18555175 211.33973421 296.34258324 248.7078141 C295.65441006 262.83116069 295.20630059 276.94821457 294.91371155 291.08511353 C294.88242447 292.59220368 294.88242447 292.59220368 294.85050532 294.1297401 C294.76746606 298.1711871 294.68600483 302.21266166 294.60658799 306.2541815 C293.98587676 337.82426962 293.12815412 369.38383447 291.73257303 400.92972445 C291.62977595 403.30399077 291.53348785 405.67843609 291.43911743 408.05305099 C291.29218627 411.72345766 291.1269849 415.3925819 290.94684556 419.06150497 C290.85497178 421.00591871 290.77941046 422.95108242 290.70455909 424.89622581 C290.03064288 437.57562249 286.28591996 446.26610276 276.77796936 454.83267212 C274.20667064 456.58798674 271.72088736 457.83360033 268.77796936 458.83267212 C267.80668752 459.17211947 266.83540567 459.51156683 265.83469105 459.86130047 C260.85512705 461.26345085 255.89150669 461.11234472 250.75323486 461.09336853 C249.10100818 461.09910685 249.10100818 461.09910685 247.41540319 461.1049611 C243.72916233 461.11526941 240.04307786 461.11130299 236.35682678 461.10733032 C233.71194951 461.11167802 231.06708366 461.11679703 228.42221069 461.12281799 C221.98616852 461.13555411 215.55016809 461.13736 209.11411544 461.13501773 C203.88076292 461.133233 198.64742305 461.13498754 193.41407204 461.13924217 C192.29580422 461.14013496 192.29580422 461.14013496 191.15494514 461.14104578 C189.64030319 461.14225756 188.12566124 461.14347169 186.61101929 461.14468815 C172.41261937 461.15555975 158.2142432 461.15340315 144.01584194 461.14730331 C131.03822751 461.14213592 118.06068818 461.15338554 105.0830886 461.17240153 C91.74640525 461.19179329 78.4097574 461.20003349 65.07305986 461.19627827 C57.59008552 461.19436807 50.10717508 461.19683598 42.62421227 461.21099281 C36.25295664 461.22292474 29.88180422 461.22429134 23.51054712 461.21220265 C20.26267973 461.20632626 17.01503927 461.20681691 13.76717758 461.21720505 C10.23916269 461.22767404 6.71165174 461.21956988 3.18365479 461.20689392 C2.167002 461.21426821 1.15034921 461.22164249 0.10288876 461.22924024 C-11.38506318 461.14265147 -19.57334505 458.11198629 -27.90953064 450.23892212 C-36.61592953 441.0101393 -36.80194081 430.25112255 -36.72996521 418.2081604 C-36.73457902 416.52373275 -36.74093516 414.83930913 -36.74887419 413.15489388 C-36.76552468 408.54484092 -36.75734066 403.93512049 -36.74492931 399.32506657 C-36.7358636 394.34611353 -36.7498561 389.36721691 -36.760849 384.38827515 C-36.77862254 374.64188297 -36.7747994 364.89561411 -36.76319844 355.14921713 C-36.75415982 347.22714318 -36.75294197 339.30510375 -36.7572937 331.38302612 C-36.75790663 330.25492087 -36.75851957 329.12681561 -36.75915107 327.96452534 C-36.76042999 325.67270198 -36.76172684 323.38087864 -36.76304144 321.0890553 C-36.77444383 299.60560556 -36.76133886 278.12222413 -36.73983997 256.6387856 C-36.72196932 238.21054169 -36.72507352 219.78239858 -36.74351501 201.35415649 C-36.76492773 179.94685393 -36.77334522 158.5396112 -36.76106596 137.13229942 C-36.75979178 134.84897233 -36.7585343 132.56564523 -36.7572937 130.28231812 C-36.7566766 129.15891812 -36.7560595 128.03551813 -36.75542369 126.87807572 C-36.75197201 118.96678805 -36.75779525 111.05553838 -36.76721191 103.14425659 C-36.7784377 93.50121572 -36.77537957 83.85830508 -36.75408894 74.2152791 C-36.74358641 69.29655065 -36.73944318 64.37803922 -36.75268555 59.45931244 C-36.76463167 54.95387344 -36.75801031 50.44885198 -36.73677534 45.94345069 C-36.73231869 44.31639954 -36.73455444 42.6893129 -36.74427849 41.06228471 C-36.81763978 27.76414547 -34.95178668 18.75781041 -25.58921814 8.96548462 C-18.41736389 2.50371495 -9.39609319 0.69131019 0 0 Z M-15.08531189 21.58657837 C-15.80267517 22.48183228 -15.80267517 22.48183228 -16.53453064 23.39517212 C-17.02566345 23.99458618 -17.51679626 24.59400024 -18.02281189 25.21157837 C-20.22093769 28.18298621 -20.34661009 30.08442597 -20.34507847 33.73274422 C-20.34706952 34.7747782 -20.34906057 35.81681217 -20.35111195 36.89042294 C-20.34819911 38.04409985 -20.34528627 39.19777676 -20.34228516 40.38641357 C-20.34313958 41.60502103 -20.34399401 42.82362848 -20.34487432 44.07916343 C-20.34624109 47.47233506 -20.34309896 50.86544955 -20.33809626 54.2586143 C-20.33379095 57.9136917 -20.33523824 61.56876722 -20.33599854 65.22384644 C-20.33652372 71.56007432 -20.3333775 77.89629194 -20.3277607 84.23251724 C-20.31964494 93.39371462 -20.3170304 102.55490701 -20.3157727 111.71610759 C-20.31358231 126.5783702 -20.30692254 141.44062733 -20.29747009 156.30288696 C-20.28829567 170.74299085 -20.28122644 185.18309325 -20.27696228 199.62319946 C-20.27669428 200.52187937 -20.27642629 201.42055928 -20.27615017 202.34647191 C-20.27407083 209.37439693 -20.27211388 216.40232199 -20.2701956 223.43024707 C-20.26075634 257.89772711 -20.24063936 292.36519345 -20.22203064 326.83267212 C76.79796936 326.83267212 173.81796936 326.83267212 273.77796936 326.83267212 C273.77796936 253.90267212 273.77796936 180.97267212 273.77796936 105.83267212 C254.63796936 105.50267212 235.49796936 105.17267212 215.77796936 104.83267212 C205.15441767 102.47188285 196.90541666 99.10815683 190.77796936 89.83267212 C186.40452083 81.81460297 186.1741407 74.03275874 186.16859436 65.07485962 C186.15358192 63.67665726 186.13684844 62.27847242 186.1184845 60.88031006 C186.0751413 57.23407085 186.0548863 53.58807067 186.03974915 49.94161987 C186.02005749 46.20724544 185.97810193 42.47312474 185.93812561 38.73892212 C185.86318243 31.43690756 185.81267524 24.1350007 185.77796936 16.83267212 C160.71753966 16.76260963 135.65712463 16.70969744 110.59661674 16.6772356 C98.96074526 16.66176279 87.32493461 16.64066529 75.68910217 16.60635376 C65.54802126 16.57646416 55.40698441 16.55710013 45.26586068 16.55040663 C39.89557258 16.54649365 34.52541053 16.53728885 29.15516281 16.51548195 C24.10075959 16.49512382 19.04653437 16.488837 13.99209404 16.49334908 C12.13693843 16.49252358 10.28177688 16.48655395 8.42665672 16.47505569 C5.89306017 16.4601221 3.36013503 16.46372158 0.82652283 16.47190857 C-0.27369113 16.45880078 -0.27369113 16.45880078 -1.39613163 16.44542819 C-6.92608868 16.49370242 -11.02656356 17.76607942 -15.08531189 21.58657837 Z M200.77796936 23.83267212 C200.72706106 30.52209201 200.69214852 37.21146151 200.66810608 43.90103149 C200.65807803 46.17448799 200.64445225 48.44793168 200.62709045 50.72134399 C200.60270152 53.99806894 200.59145402 57.27462263 200.58265686 60.55142212 C200.57233429 61.56007324 200.56201172 62.56872437 200.55137634 63.60794067 C200.55027927 70.58271063 200.57943959 78.14336874 205.46546936 83.64517212 C206.15189514 84.45921509 206.15189514 84.45921509 206.85218811 85.28970337 C213.25770263 90.42191074 219.75290946 90.23845839 227.61781311 90.12564087 C229.3009536 90.11927361 229.3009536 90.11927361 231.01809692 90.11277771 C234.58413703 90.09605309 238.14960151 90.05841134 241.71546936 90.02017212 C244.14059138 90.00511729 246.5657223 89.99143029 248.99085999 89.97915649 C254.92009765 89.94616986 260.84897419 89.8948133 266.77796936 89.83267212 C262.92892109 85.23322189 258.94492533 80.85396369 254.69667053 76.62197876 C254.12194 76.04549591 253.54720947 75.46901306 252.95506287 74.87506104 C251.07950636 72.99514915 249.20037121 71.11886402 247.32093811 69.24282837 C246.00896849 67.93018445 244.69714729 66.61739218 243.38546753 65.30445862 C240.64951427 62.56703744 237.91177608 59.83141761 235.17274475 57.09707642 C231.65408318 53.58414557 228.13997549 50.06669874 224.62716198 46.54792118 C221.92591308 43.843071 219.22230225 41.14059183 216.51795387 38.43884087 C215.22017737 37.14173309 213.92314781 35.84387755 212.62686729 34.54527473 C210.8244104 32.74029479 209.01880819 30.9385232 207.21229553 29.13760376 C206.6736235 28.5969075 206.13495148 28.05621124 205.57995605 27.49913025 C203.5264414 24.96504035 203.5264414 24.96504035 200.77796936 23.83267212 Z M-20.22203064 341.83267212 C-28.89772705 395.81095653 -28.89772705 395.81095653 -14.62437439 440.47720337 C-10.56094305 443.71711263 -7.82858976 444.95618059 -2.6841917 444.96409988 C-1.74836874 444.96794103 -0.81254577 444.97178217 0.15163547 444.97573972 C1.18157837 444.97487324 2.21152127 444.97400675 3.27267456 444.97311401 C4.36539647 444.97608514 5.45811839 444.97905626 6.58395308 444.98211741 C10.2642741 444.99082456 13.94456267 444.99231436 17.62489319 444.99380493 C20.25596181 444.99843165 22.88702976 445.00345611 25.51809692 445.0088501 C32.67924908 445.02243606 39.84039564 445.02845852 47.00155854 445.03286076 C51.4722895 445.03562267 55.94301829 445.03985993 60.41374779 445.04436493 C72.78985489 445.05655783 85.16596027 445.06685717 97.54207325 445.07024002 C98.73038087 445.07056937 98.73038087 445.07056937 99.9426947 445.07090537 C101.13385821 445.07123279 101.13385821 445.07123279 102.34908563 445.07156682 C103.95827409 445.07201029 105.56746254 445.07245685 107.176651 445.07290649 C107.97486539 445.07312792 108.77307978 445.07334935 109.59548249 445.07357749 C122.53078384 445.07752591 135.46602887 445.09498114 148.40130845 445.11826602 C161.67908036 445.14197466 174.95682399 445.15444165 188.23461741 445.15560794 C195.69070196 445.15652496 203.14671313 445.16228414 210.60277748 445.18042755 C216.95154688 445.19582197 223.30022022 445.20095292 229.64900474 445.19268945 C232.88825336 445.18878058 236.12726786 445.19135339 239.36650085 445.2037468 C242.87860601 445.2163979 246.39021199 445.21062632 249.90231323 445.20016479 C250.92556397 445.2082212 251.9488147 445.2162776 253.00307304 445.22457814 C259.26818003 445.18082649 263.88478289 444.55602794 268.64125061 440.07876587 C269.1194928 439.48192993 269.59773499 438.88509399 270.09046936 438.27017212 C270.58160217 437.67075806 271.07273499 437.07134399 271.57875061 436.45376587 C290.34143343 411.09053013 273.77796936 373.38155473 273.77796936 341.83267212 C176.75796936 341.83267212 79.73796936 341.83267212 -20.22203064 341.83267212 Z " fill="#000000" transform="translate(249.22203063964844,145.16732788085938)"/>
<path d="M0 0 C0.88228271 0.50490967 1.76456543 1.00981934 2.67358398 1.5300293 C3.67381592 2.0964917 4.67404785 2.6629541 5.70458984 3.24658203 C6.76556885 3.85961182 7.82654785 4.4726416 8.91967773 5.10424805 C10.03157471 5.7372583 11.14347168 6.37026855 12.2890625 7.02246094 C15.64963417 8.93774927 19.00345692 10.86449672 22.35717773 12.79174805 C24.15600412 13.81633245 25.95543305 14.83986014 27.75561523 15.86206055 C32.96497734 18.82329305 38.16265317 21.80457757 43.35717773 24.79174805 C44.86683105 25.65968994 44.86683105 25.65968994 46.40698242 26.54516602 C59.05448221 33.82067025 71.67874283 41.13479433 84.27563477 48.49755859 C93.12878842 53.66838164 102.0082378 58.79297037 110.89428711 63.90698242 C111.9274707 64.50188477 112.9606543 65.09678711 114.02514648 65.7097168 C114.93546631 66.23331787 115.84578613 66.75691895 116.78369141 67.29638672 C117.63294189 67.78985596 118.48219238 68.2833252 119.35717773 68.79174805 C120.25090088 69.26781494 121.14462402 69.74388184 122.06542969 70.234375 C124.63510661 71.98061651 125.22227724 72.95344606 126.35717773 75.79174805 C126.61444664 77.94103146 126.61444664 77.94103146 126.62460327 80.30125427 C126.63739822 81.64913528 126.63739822 81.64913528 126.65045166 83.02424622 C126.6490921 84.49168526 126.6490921 84.49168526 126.64770508 85.98876953 C126.6544223 87.02495422 126.66113953 88.06113892 126.6680603 89.12872314 C126.68707118 92.55681135 126.69096592 95.98470415 126.69311523 99.4128418 C126.6995404 101.79411398 126.70626855 104.17538537 126.71328735 106.55665588 C126.72526743 111.54918244 126.72896736 116.54163976 126.7277832 121.53417969 C126.72757984 127.93468153 126.75489737 134.33474024 126.78932762 140.73513699 C126.81155185 145.65332585 126.81562213 150.57140725 126.81456375 155.48964119 C126.81692587 157.8495747 126.82578355 160.20951091 126.84122849 162.56939507 C126.86079966 165.86835777 126.85508498 169.16635414 126.84301758 172.46533203 C126.85425659 173.44160049 126.86549561 174.41786896 126.8770752 175.42372131 C126.83717897 179.71062531 126.77266839 182.11966872 124.47857666 185.83049011 C122.16877106 187.9659322 119.93682248 189.49387499 117.19311523 191.03393555 C116.16669922 191.61739746 115.1402832 192.20085937 114.08276367 192.80200195 C112.97707031 193.41736816 111.87137695 194.03273438 110.73217773 194.66674805 C109.56781846 195.32499094 108.40409191 195.98435416 107.2409668 196.64477539 C104.82285972 198.016548 102.40210674 199.38346453 99.97924805 200.74682617 C94.33173413 203.9292363 88.72123554 207.17582109 83.10717773 210.41674805 C82.03918945 211.02897217 80.97120117 211.64119629 79.87084961 212.27197266 C74.57163435 215.31708623 69.3149652 218.41174048 64.11499023 221.6237793 C62.62660645 222.53426025 62.62660645 222.53426025 61.1081543 223.46313477 C59.24923274 224.60468303 57.39888651 225.76036845 55.55932617 226.93286133 C47.5571883 231.8261547 47.5571883 231.8261547 42.5871582 231.42138672 C37.10617914 229.87382322 32.32091685 226.65172004 27.48217773 223.72924805 C26.23841484 222.99573001 24.99360324 222.26398756 23.74780273 221.53393555 C21.18852821 220.03148506 18.63462673 218.52048441 16.0847168 217.00219727 C10.54251107 213.70723277 4.94737602 210.50434737 -0.64282227 207.29174805 C-2.7861899 206.05370648 -4.92941798 204.8154233 -7.07250977 203.5769043 C-13.36626032 199.94574885 -19.67605786 196.34304348 -25.98822021 192.74404907 C-38.26896574 185.74107155 -50.50840165 178.67051983 -62.70092773 171.51489258 C-65.79362311 169.70342005 -68.89186205 167.90166451 -71.99047852 166.1003418 C-74.02059283 164.91442868 -76.05054668 163.72824083 -78.08032227 162.54174805 C-79.50320557 161.71767456 -79.50320557 161.71767456 -80.95483398 160.87695312 C-81.81995605 160.3693042 -82.68507813 159.86165527 -83.57641602 159.33862305 C-84.34010498 158.89357422 -85.10379395 158.44852539 -85.890625 157.98999023 C-87.64282227 156.79174805 -87.64282227 156.79174805 -88.64282227 154.79174805 C-88.74736767 153.33354717 -88.79093993 151.87074947 -88.80345154 150.40885925 C-88.81349716 149.48777878 -88.82354279 148.5666983 -88.83389282 147.6177063 C-88.83972382 146.60417084 -88.84555481 145.59063538 -88.8515625 144.54638672 C-88.86134628 143.48123337 -88.87113007 142.41608002 -88.88121033 141.31864929 C-88.9112048 137.78235127 -88.9325596 134.24609113 -88.95141602 130.7097168 C-88.95798784 129.50420984 -88.96455967 128.29870289 -88.97133064 127.05666542 C-89.00394013 120.67727456 -89.02838858 114.29790054 -89.04785156 107.91845703 C-89.06567987 102.63077598 -89.10052342 97.34362667 -89.15039062 92.05615234 C-89.21046063 85.6801194 -89.24130937 79.30458043 -89.25102425 72.92827797 C-89.25960173 70.49573334 -89.27847568 68.0632027 -89.30776787 65.63081932 C-89.34653958 62.22838737 -89.34773492 58.82789213 -89.33984375 55.42529297 C-89.36984467 53.91409882 -89.36984467 53.91409882 -89.40045166 52.37237549 C-89.33092313 45.70482439 -89.33092313 45.70482439 -87.36010551 43.08964539 C-85.77668762 41.73954773 -85.77668762 41.73954773 -82.64282227 39.79174805 C-81.23758301 38.90156982 -81.23758301 38.90156982 -79.80395508 37.9934082 C-78.8278125 37.44475098 -77.85166992 36.89609375 -76.84594727 36.33081055 C-75.73517822 35.70190918 -74.62440918 35.07300781 -73.47998047 34.42504883 C-72.28426153 33.75561441 -71.08854211 33.08618084 -69.89282227 32.41674805 C-68.64656798 31.71287423 -67.40072472 31.00827222 -66.15527344 30.30297852 C-64.23321438 29.21464426 -62.31092021 28.12675176 -60.38737488 27.04104614 C-53.88737217 23.37205079 -47.41872873 19.64986046 -40.95532227 15.91674805 C-39.88564209 15.29993164 -38.81596191 14.68311523 -37.71386719 14.04760742 C-30.65522623 9.97188389 -23.61835677 5.86052985 -16.62646484 1.67114258 C-10.47822193 -1.98517172 -6.72134528 -3.07288109 0 0 Z M-12.00610352 17.29174805 C-13.41122192 18.11666748 -13.41122192 18.11666748 -14.84472656 18.95825195 C-16.38447144 19.86583252 -16.38447144 19.86583252 -17.95532227 20.79174805 C-25.04219956 24.9545099 -32.14058062 29.09109086 -39.29125977 33.14331055 C-39.92188828 33.50116638 -40.55251678 33.85902222 -41.20225525 34.22772217 C-43.68855315 35.63810672 -46.17498615 37.04815212 -48.66641235 38.44946289 C-50.40417219 39.42696203 -52.13878944 40.41004145 -53.87329102 41.39331055 C-54.8673999 41.95356934 -55.86150879 42.51382813 -56.88574219 43.09106445 C-59.66442458 44.80507327 -62.13962265 46.70017809 -64.64282227 48.79174805 C-52.53612025 58.24364703 -52.53612025 58.24364703 -38.4206543 62.89526367 C-34.25775105 61.86351667 -31.03391597 59.07653961 -27.78149414 56.41723633 C-23.46028197 53.13291776 -18.60850957 50.6474895 -13.89282227 47.97924805 C-11.83325705 46.77610027 -9.77595445 45.56907086 -7.72094727 44.3581543 C-2.04134879 41.02152594 3.65421992 37.71325861 9.35717773 34.41674805 C10.17025391 33.94648193 10.98333008 33.47621582 11.82104492 32.99169922 C13.66620597 31.92467427 15.51165478 30.85814693 17.35717773 29.79174805 C14.65648947 26.89956276 12.10025522 24.87993044 8.62670898 22.99487305 C7.74176758 22.51147461 6.85682617 22.02807617 5.94506836 21.5300293 C5.02918945 21.03889648 4.11331055 20.54776367 3.16967773 20.04174805 C2.24219727 19.53514648 1.3147168 19.02854492 0.35913086 18.5065918 C-5.85003502 14.68523488 -5.85003502 14.68523488 -12.00610352 17.29174805 Z M27.72827148 41.3269043 C26.78773926 41.88200684 25.84720703 42.43710937 24.87817383 43.0090332 C23.86062012 43.6179541 22.84306641 44.226875 21.79467773 44.85424805 C19.62978607 46.1349957 17.46440341 47.41491368 15.29858398 48.6940918 C14.16694824 49.36424316 13.0353125 50.03439453 11.86938477 50.72485352 C8.32660498 52.81581034 4.76469243 54.87252265 1.19702148 56.9206543 C0.6120842 57.2566011 0.02714691 57.59254791 -0.57551575 57.93867493 C-3.41126161 59.56640445 -6.2483898 61.19169646 -9.08642578 62.81542969 C-14.04794376 65.6663558 -18.94380412 68.5235728 -23.64282227 71.79174805 C-18.98839396 75.88764496 -13.72499689 78.68195991 -8.33032227 81.66674805 C-6.26053422 82.82421274 -4.19154946 83.98311483 -2.12329102 85.14331055 C-1.05643066 85.74175781 0.01042969 86.34020508 1.10961914 86.95678711 C6.38620742 89.93820626 11.62350789 92.98578814 16.85717773 96.04174805 C17.85894043 96.62432373 18.86070312 97.20689941 19.89282227 97.80712891 C24.30851245 100.38373926 28.70016032 102.98315655 33.02514648 105.7097168 C33.71479492 106.14058594 34.40444336 106.57145508 35.11499023 107.01538086 C36.35377309 107.79463546 37.58506097 108.58600882 38.80639648 109.39233398 C41.22922945 110.91388473 42.91836294 111.79594054 45.81030273 111.76831055 C49.24677424 110.45064509 52.29791062 108.65139078 55.41967773 106.72924805 C56.91968426 105.82475228 58.42109686 104.92258595 59.92358398 104.0222168 C61.19032959 103.26303955 61.19032959 103.26303955 62.48266602 102.48852539 C65.764122 100.55153549 69.07059522 98.66066303 72.38452148 96.7800293 C73.30516136 96.25716591 73.30516136 96.25716591 74.24440002 95.72373962 C76.72164615 94.31780054 79.19943384 92.9128624 81.6802063 91.51315308 C88.74989598 87.52240718 95.68937332 83.43306289 102.35717773 78.79174805 C97.70274942 74.69585113 92.43935235 71.90153618 87.04467773 68.91674805 C84.97488969 67.75928335 82.90590493 66.60038126 80.83764648 65.44018555 C79.77078613 64.84173828 78.70392578 64.24329102 77.60473633 63.62670898 C72.32815939 60.64529624 67.09044688 57.59837722 61.85717773 54.54174805 C60.85686523 53.95844727 59.85655273 53.37514648 58.82592773 52.77416992 C54.40182166 50.18709332 49.99121839 47.58273172 45.61889648 44.90893555 C44.92022461 44.48257813 44.22155273 44.0562207 43.50170898 43.61694336 C42.24129991 42.84396793 40.98447047 42.06510932 39.73217773 41.27905273 C34.77414647 38.23180668 32.63410487 38.40431076 27.72827148 41.3269043 Z M-72.64282227 62.79174805 C-73.20160231 73.49948152 -73.62657 84.20370217 -73.88631439 94.92309761 C-74.01107847 99.90297765 -74.17973518 104.87282539 -74.45336914 109.84692383 C-76.5313584 130.72391551 -76.5313584 130.72391551 -70.42623901 149.89086914 C-64.85336847 154.80131936 -58.53911516 157.43699014 -51.55535889 159.77337646 C-47.72635928 161.11219032 -44.64297618 162.93801534 -41.20922852 165.08862305 C-39.20826902 166.24026016 -37.20698051 167.39132585 -35.20532227 168.54174805 C-29.21753484 171.98490606 -23.23190999 175.42906396 -17.29516602 178.9597168 C-16.10201782 179.6688623 -16.10201782 179.6688623 -14.88476562 180.39233398 C-13.43396704 181.25747316 -11.98540089 182.12637176 -10.53955078 182.99975586 C-7.31674133 185.09610529 -7.31674133 185.09610529 -3.64282227 185.79174805 C-0.51552825 167.18764435 -0.51552825 167.18764435 -5.72436523 150.01586914 C-11.32024967 145.43518089 -17.80728683 142.74075025 -24.4909668 140.10766602 C-29.12954257 138.17103368 -33.2729656 135.58605831 -37.51782227 132.91674805 C-41.79957649 129.97833528 -41.79957649 129.97833528 -46.64282227 128.79174805 C-46.63536484 128.15361176 -46.62790741 127.51547546 -46.620224 126.85800171 C-46.55132564 120.20625927 -46.54536327 113.55655572 -46.57568359 106.90454102 C-46.57876275 104.42338897 -46.56588026 101.94216307 -46.53662109 99.46118164 C-46.49729406 95.89028736 -46.51567656 92.32359368 -46.54516602 88.75268555 C-46.52058823 87.64621674 -46.49601044 86.53974792 -46.47068787 85.39974976 C-46.52399257 79.77283473 -46.52399257 79.77283473 -49.15725708 74.99908447 C-51.56238533 73.29561722 -53.98045845 72.06382103 -56.64282227 70.79174805 C-58.0296586 70.08378162 -59.41482767 69.37254364 -60.7986908 68.65878296 C-64.72266424 66.65150119 -68.67467218 64.710093 -72.64282227 62.79174805 Z M-32.64282227 86.79174805 C-35.06041868 104.35854246 -35.06041868 104.35854246 -31.36108398 121.06323242 C-27.72035021 124.54651169 -23.12126641 126.02194627 -18.43920898 127.6628418 C-12.85577659 129.9168833 -7.83375036 133.2903143 -2.70532227 136.41674805 C-0.63834759 137.6459383 1.43295105 138.86790156 3.50952148 140.08081055 C4.39631592 140.60368652 5.28311035 141.1265625 6.19677734 141.6652832 C8.24667154 142.94586137 8.24667154 142.94586137 10.35717773 142.79174805 C11.27272999 145.84563031 11.40174517 148.34909575 11.18164062 151.52172852 C8.1653527 176.53250182 8.1653527 176.53250182 14.73950195 199.46899414 C20.04744849 204.76643211 29.67544524 209.79174805 37.35717773 209.79174805 C37.56584829 199.07389437 37.72569165 188.35652491 37.82348728 177.63705254 C37.87042935 172.65924131 37.93407748 167.6828211 38.03613281 162.70581055 C38.13403658 157.90110783 38.18775782 153.09774136 38.21107292 148.29211807 C38.2276835 146.46032799 38.26012335 144.62860991 38.30874825 142.79738998 C38.95302406 133.07024956 38.95302406 133.07024956 35.50776672 124.42668152 C33.17648028 122.83842617 30.98636795 121.79636758 28.35717773 120.79174805 C27.30796143 120.16083252 26.25874512 119.52991699 25.17773438 118.87988281 C24.21730225 118.3364624 23.25687012 117.79304199 22.26733398 117.2331543 C21.16526611 116.60691162 20.06319824 115.98066895 18.92773438 115.33544922 C18.35572296 115.01240814 17.78371155 114.68936707 17.19436646 114.35653687 C14.75176116 112.9770296 12.3133851 111.59012194 9.8747406 110.20362854 C8.60961331 109.48438963 7.34428212 108.76550926 6.07875061 108.04698181 C-0.6579845 104.22058002 -7.37068976 100.3529241 -14.08032227 96.47924805 C-15.16885498 95.85155518 -16.2573877 95.2238623 -17.37890625 94.57714844 C-25.33418184 89.98477044 -25.33418184 89.98477044 -28.34228516 88.10351562 C-30.49101542 86.62663653 -30.49101542 86.62663653 -32.64282227 86.79174805 Z M104.02124023 95.72924805 C102.906604 96.36983154 101.79196777 97.01041504 100.64355469 97.67041016 C99.42304781 98.37744011 98.20259 99.08455478 96.98217773 99.79174805 C95.73527392 100.51035867 94.48811885 101.22853347 93.24072266 101.94628906 C91.29218187 103.06771088 89.34390802 104.18957952 87.39659119 105.31312561 C82.70845302 108.01781658 78.01047343 110.70472877 73.30639648 113.3815918 C72.66126099 113.7489444 72.01612549 114.116297 71.35144043 114.49478149 C68.83571829 115.92725906 66.3199736 117.35969168 63.80303955 118.79003906 C62.06632542 119.77738943 60.33086006 120.76693537 58.59545898 121.7565918 C57.60586182 122.31983154 56.61626465 122.88307129 55.59667969 123.46337891 C53.46131937 124.60512944 53.46131937 124.60512944 52.35717773 125.79174805 C52.26208214 128.40863246 52.23161773 130.99903705 52.24365234 133.61621094 C52.24350632 134.43565689 52.24336029 135.25510284 52.24320984 136.09938049 C52.24390921 138.82108158 52.25170272 141.5427151 52.25952148 144.2644043 C52.26138558 146.14627546 52.26280952 148.0281471 52.2638092 149.91001892 C52.26763507 154.87323334 52.27746593 159.83641868 52.28851318 164.79962158 C52.29872584 169.86014411 52.30330651 174.92067132 52.30834961 179.98120117 C52.31908814 189.91806293 52.33616537 199.85490308 52.35717773 209.79174805 C54.24121933 208.86022513 56.12403396 207.92622046 58.00634766 206.99121094 C59.05497482 206.47136124 60.10360199 205.95151154 61.18400574 205.41590881 C66.13004673 202.88432032 70.89461603 200.06679328 75.66967773 197.22924805 C87.470584 190.24019732 99.41084072 183.54402549 111.35717773 176.79174805 C111.35717773 149.07174805 111.35717773 121.35174805 111.35717773 92.79174805 C108.37987191 92.79174805 106.59124079 94.24505064 104.02124023 95.72924805 Z " fill="#000000" transform="translate(360.642822265625,225.208251953125)"/>
<path d="M0 0 C2.98582381 3.2922309 5.10410628 6.78069811 7.1640625 10.703125 C8.01097656 12.29640625 8.01097656 12.29640625 8.875 13.921875 C10.04979525 16.15608382 11.2242701 18.39046115 12.3984375 20.625 C12.96046875 21.68203125 13.5225 22.7390625 14.1015625 23.828125 C14.61025879 24.7965332 15.11895508 25.76494141 15.64306641 26.76269531 C16.80319735 29.12361804 16.80319735 29.12361804 19 30 C19.27021973 29.1244043 19.54043945 28.24880859 19.81884766 27.34667969 C21.71344587 21.97852088 24.58512875 17.19679813 27.375 12.25 C27.9525 11.19683594 28.53 10.14367187 29.125 9.05859375 C29.68960938 8.05441406 30.25421875 7.05023438 30.8359375 6.015625 C31.34688965 5.10071289 31.8578418 4.18580078 32.38427734 3.24316406 C34.12222841 0.83030604 35.20478163 -0.05936075 38 -1 C41.85466368 -0.68533358 43.74874983 -0.16750011 47 2 C48.08824343 5.26473029 48.14666452 7.69942594 48.17700195 11.13623047 C48.19625481 13.03367508 48.19625481 13.03367508 48.21589661 14.9694519 C48.22406361 16.35202645 48.23150742 17.73460543 48.23828125 19.1171875 C48.24235678 19.81427952 48.2464323 20.51137154 48.25063133 21.22958755 C48.27147029 24.91819205 48.28578224 28.60675957 48.29516602 32.29541016 C48.30623557 36.10089963 48.34064703 39.90580521 48.38033772 43.71108818 C48.40650336 46.64166335 48.41485766 49.57209921 48.41844749 52.50278091 C48.42331242 53.90539628 48.43492395 55.30800546 48.45348549 56.71050644 C48.4778744 58.67518743 48.47449236 60.64015331 48.4699707 62.60498047 C48.47583694 63.72178192 48.48170319 64.83858337 48.48774719 65.98922729 C47.88928089 69.68344847 46.59204742 71.35082294 44 74 C42 74.6640625 42 74.6640625 40 74.625 C39.34 74.63789062 38.68 74.65078125 38 74.6640625 C34.87616534 73.62685177 33.80350944 71.69444679 32 69 C31.45410156 65.95385742 31.45410156 65.95385742 31.390625 62.60546875 C31.35839844 61.40341797 31.32617188 60.20136719 31.29296875 58.96289062 C31.27878906 57.71701172 31.26460938 56.47113281 31.25 55.1875 C31.22035156 53.92228516 31.19070313 52.65707031 31.16015625 51.35351562 C31.08956223 48.23561324 31.0368109 45.11845425 31 42 C30.54109375 42.84304688 30.0821875 43.68609375 29.609375 44.5546875 C28.99578125 45.65039062 28.3821875 46.74609375 27.75 47.875 C27.14671875 48.96554687 26.5434375 50.05609375 25.921875 51.1796875 C24.02305922 53.96616107 23.1639811 55.02215545 20 56 C16.01064661 55.92876155 13.82295147 55.77454256 10.875 53 C9.29338856 50.46942169 7.82524919 47.92307395 6.3828125 45.3125 C5.93566895 44.50425781 5.48852539 43.69601562 5.02783203 42.86328125 C4.68864746 42.24839844 4.34946289 41.63351562 4 41 C3.9906543 41.85754883 3.98130859 42.71509766 3.97167969 43.59863281 C3.92758709 46.78972679 3.86593944 49.97986756 3.79248047 53.17041016 C3.76430901 54.54951651 3.74307528 55.92878318 3.72900391 57.30810547 C3.70752455 59.29422949 3.65876868 61.27999909 3.609375 63.265625 C3.58842773 64.45961914 3.56748047 65.65361328 3.54589844 66.88378906 C2.8979237 70.58269315 1.99260028 71.79005917 -1 74 C-4.86614792 74.55230685 -6.99801616 74.74273862 -10.18739319 72.3785553 C-12.575367 69.24498671 -12.50115368 67.3607951 -12.50170898 63.44311523 C-12.50711197 62.79386078 -12.51251495 62.14460632 -12.51808167 61.47567749 C-12.53055815 59.3361815 -12.51408934 57.198034 -12.49609375 55.05859375 C-12.49624875 53.56934031 -12.49773784 52.08008645 -12.50050354 50.59083557 C-12.50188697 47.47289147 -12.48933816 44.35540771 -12.46655273 41.23754883 C-12.438143 37.24022741 -12.44091256 33.2436693 -12.45364285 29.24629116 C-12.46059548 26.17248508 -12.45281603 23.09885563 -12.44038582 20.0250721 C-12.43586897 18.5510736 -12.43553657 17.07705617 -12.43945122 15.60305595 C-12.44236015 13.54413804 -12.42587499 11.48627488 -12.40405273 9.42749023 C-12.39864975 8.25596909 -12.39324677 7.08444794 -12.38768005 5.87742615 C-12 3 -12 3 -10.6622467 1.16078186 C-6.98022783 -1.41044942 -4.1727155 -1.19220443 0 0 Z " fill="#000000" transform="translate(447,502)"/>
<path d="M0 0 C2.15718096 -0.00219399 4.3138561 -0.02039987 6.47094727 -0.03930664 C7.84789865 -0.04223971 9.22485245 -0.04422508 10.60180664 -0.04516602 C11.84776611 -0.0492749 13.09372559 -0.05338379 14.37744141 -0.05761719 C17.42586097 0.17232576 19.08183595 0.51626726 21.59790039 2.18530273 C23.67949059 4.86163299 23.5937763 6.30283941 23.47290039 9.74780273 C22.59790039 13.18530273 22.59790039 13.18530273 20.98266602 14.87695312 C17.73860223 16.65673792 15.25675845 16.55425991 11.56665039 16.55639648 C10.18513744 16.57377394 8.80362707 16.59135837 7.42211914 16.60913086 C5.25621847 16.61921053 3.09048374 16.6227969 0.92456055 16.62109375 C-1.17440792 16.62466748 -3.27210741 16.65201347 -5.37084961 16.68139648 C-7.24933594 16.68417603 -7.24933594 16.68417603 -9.16577148 16.68701172 C-12.46928547 16.93495581 -12.46928547 16.93495581 -14.84545898 19.02148438 C-16.71520084 21.16401053 -16.71520084 21.16401053 -16.33959961 24.31030273 C-15.63515274 27.47705205 -15.63515274 27.47705205 -12.40209961 29.18530273 C-8.68123203 29.47348758 -4.9985575 29.599626 -1.26928711 29.66381836 C6.40540722 29.92516592 12.25289399 32.09674965 18.01977539 37.31811523 C21.79103448 41.7801495 23.34579718 47.0964476 24.03540039 52.81030273 C23.00765833 60.73859864 19.81388439 66.99380499 13.59790039 72.18530273 C8.28702928 74.88854072 4.09682108 75.65243959 -1.82006836 75.65405273 C-2.59973465 75.66166626 -3.37940094 75.66927979 -4.18269348 75.67712402 C-5.81886612 75.68786384 -7.45510696 75.69080321 -9.09130859 75.6862793 C-11.59384162 75.68530108 -14.09336312 75.72710724 -16.59545898 75.77124023 C-18.19115575 75.77644378 -19.78686311 75.77913548 -21.38256836 75.77905273 C-22.12741989 75.795448 -22.87227142 75.81184326 -23.63969421 75.82873535 C-27.43005672 75.77819317 -29.08055889 75.4818685 -31.90722656 72.87475586 C-33.94600849 69.20674643 -33.5086 67.16870414 -32.40209961 63.18530273 C-31.26098633 61.50415039 -31.26098633 61.50415039 -29.40209961 60.18530273 C-26.38696289 59.76879883 -26.38696289 59.76879883 -22.72241211 59.70874023 C-21.7477449 59.68537094 -21.7477449 59.68537094 -20.75338745 59.66152954 C-18.67797091 59.61406317 -16.6028866 59.58629218 -14.52709961 59.56030273 C-12.45869418 59.52366819 -10.39047069 59.4828628 -8.32223511 59.43765259 C-6.4403146 59.39818841 -4.55816188 59.37030217 -2.67602539 59.34301758 C0.20204848 59.20437211 2.79985204 58.84463958 5.59790039 58.18530273 C6.6908064 53.51139257 6.6908064 53.51139257 5.62524414 48.98608398 C2.57371331 46.27557202 -0.64047608 46.63783318 -4.52709961 46.62280273 C-14.06220468 46.31395718 -21.49931598 45.24861621 -28.40209961 38.18530273 C-32.67127444 32.09625531 -34.14286274 26.59293408 -33.40209961 19.18530273 C-31.92535231 12.97598733 -28.98599794 7.75814717 -23.69897461 3.96264648 C-16.20146169 -0.58475809 -8.47296931 -0.00096734 0 0 Z " fill="#000000" transform="translate(375.402099609375,500.814697265625)"/>
<path d="M0 0 C3.44266378 0.95629549 4.24890546 1.26214255 6.375 3.9375 C7.49504089 6.48429871 7.49504089 6.48429871 8.55151367 9.56713867 C8.95170212 10.72231491 9.35189056 11.87749115 9.76420593 13.06767273 C10.39719353 14.94263176 10.39719353 14.94263176 11.04296875 16.85546875 C11.48666188 18.15495547 11.93078578 19.45429518 12.37532043 20.75349426 C13.30496507 23.47762754 14.2278124 26.20395032 15.14624023 28.93188477 C16.31884636 32.41229571 17.51034224 35.88588911 18.70740795 39.35795116 C19.6296908 42.04123256 20.54052359 44.72829746 21.44817543 47.41655922 C22.09264196 49.31763179 22.74753547 51.2151594 23.40263367 53.1125946 C25.45123122 59.25178715 27.08988454 64.45086846 26.375 70.9375 C24.8125 73.4375 24.8125 73.4375 22.375 74.9375 C18.54739733 75.48430038 16.382602 75.60923467 13.125 73.4375 C10.2461755 69.32489358 8.375 64.98970108 8.375 59.9375 C2.105 59.9375 -4.165 59.9375 -10.625 59.9375 C-11.285 62.9075 -11.945 65.8775 -12.625 68.9375 C-14.95833333 73.60416667 -14.95833333 73.60416667 -17.625 74.9375 C-21.42377599 75.28923852 -23.76860153 75.46451444 -27.0625 73.4375 C-29.26241932 69.91762908 -29.11880846 66.93679369 -28.625 62.9375 C-27.466008 58.33935349 -25.95589482 53.87700967 -24.42578125 49.390625 C-23.98876863 48.08904339 -23.55235201 46.78726153 -23.11650085 45.48529053 C-22.20403769 42.76942992 -21.28251228 40.05685734 -20.35473633 37.34619141 C-19.16962445 33.88036357 -18.01066555 30.40642109 -16.85868549 26.92946243 C-15.96509321 24.24373185 -15.05629333 21.56333618 -14.14302635 18.8842392 C-13.49953457 16.9863157 -12.87003617 15.08366621 -12.24079895 13.18096924 C-11.84076157 12.02586853 -11.44072418 10.87076782 -11.02856445 9.68066406 C-10.68436966 8.66554749 -10.34017487 7.65043091 -9.98554993 6.60455322 C-7.64135731 2.00928894 -5.19161873 -0.08951067 0 0 Z M-1.625 32.9375 C-2.13059908 34.37304025 -2.6292749 35.8110202 -3.125 37.25 C-3.4034375 38.05050781 -3.681875 38.85101562 -3.96875 39.67578125 C-4.76433107 42.02519422 -4.76433107 42.02519422 -4.625 44.9375 C-2.315 44.9375 -0.005 44.9375 2.375 44.9375 C1.385 40.9775 0.395 37.0175 -0.625 32.9375 C-0.955 32.9375 -1.285 32.9375 -1.625 32.9375 Z " fill="#000000" transform="translate(284.625,501.0625)"/>
</svg>
