<svg height="800px" width="800px" version="1.1" id="_x32_" xmlns="http://www.w3.org/2000/svg" xmlns:xlink="http://www.w3.org/1999/xlink" 
	 viewBox="0 0 512 512"  xml:space="preserve">
<style type="text/css">
	.st0{fill:#000000;}
</style>
<g>
	<polygon class="st0" points="132.928,277.919 173.562,318.553 255.992,236.123 338.438,318.553 379.072,277.919 255.992,154.839 	
		"/>
	<path class="st0" d="M255.992,0C114.606,0.015,0.015,114.606,0,256.008C0.015,397.394,114.606,511.984,255.992,512
		C397.394,511.984,511.985,397.394,512,256.008C511.985,114.606,397.394,0.015,255.992,0z M408.585,408.585
		c-39.118,39.079-92.938,63.189-152.593,63.205c-59.647-0.016-113.467-24.126-152.577-63.205
		c-39.087-39.111-63.197-92.93-63.205-152.577c0.008-59.655,24.118-113.483,63.205-152.593
		c39.11-39.087,92.93-63.197,152.577-63.205c59.655,0.008,113.476,24.118,152.593,63.205c39.079,39.11,63.197,92.938,63.205,152.593
		C471.782,315.655,447.672,369.474,408.585,408.585z"/>
</g>
</svg>