<?xml version="1.0" encoding="UTF-8"?>
<svg version="1.1" xmlns="http://www.w3.org/2000/svg" width="100" height="100">
<path d="M0 0 C1.98 0 3.96 0 6 0 C7.98 3.96 9.96 7.92 12 12 C13.258125 11.505 14.51625 11.01 15.8125 10.5 C18.50941597 9.43891831 20.04725901 9 23 9 C22.34 6.03 21.68 3.06 21 0 C22.98 0 24.96 0 27 0 C27.33 2.31 27.66 4.62 28 7 C28.54140625 6.83628906 29.0828125 6.67257813 29.640625 6.50390625 C32.40222593 5.91409413 34.92818139 5.90390692 37.75 5.9375 C38.73484375 5.94652344 39.7196875 5.95554687 40.734375 5.96484375 C41.85585937 5.98224609 41.85585937 5.98224609 43 6 C43 4.02 43 2.04 43 0 C44.32 0 45.64 0 47 0 C47 1.98 47 3.96 47 6 C47.74765625 5.98839844 48.4953125 5.97679688 49.265625 5.96484375 C50.25046875 5.95582031 51.2353125 5.94679688 52.25 5.9375 C53.71179687 5.92009766 53.71179687 5.92009766 55.203125 5.90234375 C57.65758678 5.98804423 59.66168914 6.29293934 62 7 C62.33 4.69 62.66 2.38 63 0 C64.98 0 66.96 0 69 0 C68.34 2.97 67.68 5.94 67 9 C67.886875 9.12375 68.77375 9.2475 69.6875 9.375 C73 10 73 10 78 12 C79.98 8.04 81.96 4.08 84 0 C85.98 0 87.96 0 90 0 C87.13482119 10.63132138 80.9777556 21.15100578 71.33789062 27.01025391 C58.59801835 34.06634072 45.99549921 36.18164667 31.5546875 33.31640625 C17.91665655 28.63440417 8.31461505 19.48591455 2.08154297 6.74804688 C0 2.31361476 0 2.31361476 0 0 Z M30 12 C30.56419612 15.84740968 31.63320248 18.41398441 33.8125 21.625 C34.31394531 22.38039063 34.81539062 23.13578125 35.33203125 23.9140625 C37.05264461 26.06583658 38.68038542 27.52259842 41 29 C41.66 29 42.32 29 43 29 C43 23.06 43 17.12 43 11 C41.411875 10.979375 39.82375 10.95875 38.1875 10.9375 C37.29417969 10.92589844 36.40085937 10.91429688 35.48046875 10.90234375 C32.86586209 10.88990033 32.86586209 10.88990033 30 12 Z M47 11 C47 16.94 47 22.88 47 29 C52.11823826 26.99726082 52.11823826 26.99726082 55.1875 23.125 C55.67605469 22.44695312 56.16460937 21.76890625 56.66796875 21.0703125 C58.72668282 17.87055163 60 15.86325455 60 12 C56.98509443 10.99503148 54.95818308 10.89664697 51.8125 10.9375 C49.4303125 10.9684375 49.4303125 10.9684375 47 11 Z M16 16 C17.4756237 19.85674376 19.47006893 21.21823735 23 23.25 C23.886875 23.77078125 24.77375 24.2915625 25.6875 24.828125 C27.86525463 26.15067625 27.86525463 26.15067625 30 26 C28.41037341 21.96479403 26.71767682 17.98188718 25 14 C21.20442119 14 19.37097383 14.50178941 16 16 Z M65 14 C64.16180842 15.62249941 63.3295884 17.24808497 62.5 18.875 C62.0359375 19.77992187 61.571875 20.68484375 61.09375 21.6171875 C59.86094411 23.86596859 59.86094411 23.86596859 60 26 C65.51635966 24.62091009 69.86958227 21.8578521 74 18 C74 17.34 74 16.68 74 16 C70.62902617 14.50178941 68.79557881 14 65 14 Z " fill="#000000" transform="translate(5,62)"/>
<path d="M0 0 C9.56034743 6.88481348 14.80513147 14.51682869 19.3125 25.25 C19.3125 25.91 19.3125 26.57 19.3125 27.25 C17.3325 27.25 15.3525 27.25 13.3125 27.25 C11.3325 23.29 9.3525 19.33 7.3125 15.25 C6.054375 15.745 4.79625 16.24 3.5 16.75 C0.80308403 17.81108169 -0.73475901 18.25 -3.6875 18.25 C-2.6975 22.705 -2.6975 22.705 -1.6875 27.25 C-3.6675 27.25 -5.6475 27.25 -7.6875 27.25 C-8.1825 23.785 -8.1825 23.785 -8.6875 20.25 C-9.49960938 20.49556641 -9.49960938 20.49556641 -10.328125 20.74609375 C-13.08972593 21.33590587 -15.61568139 21.34609308 -18.4375 21.3125 C-19.42234375 21.30347656 -20.4071875 21.29445313 -21.421875 21.28515625 C-22.16953125 21.27355469 -22.9171875 21.26195313 -23.6875 21.25 C-23.6875 23.23 -23.6875 25.21 -23.6875 27.25 C-25.0075 27.25 -26.3275 27.25 -27.6875 27.25 C-27.6875 25.27 -27.6875 23.29 -27.6875 21.25 C-28.80898437 21.26740234 -28.80898437 21.26740234 -29.953125 21.28515625 C-30.93796875 21.29417969 -31.9228125 21.30320312 -32.9375 21.3125 C-34.39929687 21.32990234 -34.39929687 21.32990234 -35.890625 21.34765625 C-38.34508678 21.26195577 -40.34918914 20.95706066 -42.6875 20.25 C-43.0175 22.56 -43.3475 24.87 -43.6875 27.25 C-45.6675 27.25 -47.6475 27.25 -49.6875 27.25 C-49.0275 24.28 -48.3675 21.31 -47.6875 18.25 C-48.574375 18.12625 -49.46125 18.0025 -50.375 17.875 C-53.6875 17.25 -53.6875 17.25 -58.6875 15.25 C-60.6675 19.21 -62.6475 23.17 -64.6875 27.25 C-66.6675 27.25 -68.6475 27.25 -70.6875 27.25 C-67.82232119 16.61867862 -61.6652556 6.09899422 -52.02539062 0.23974609 C-35.28248981 -9.03345219 -16.68033417 -10.3125039 0 0 Z M-34.08984375 1.55078125 C-37.61645572 5.30157883 -40.6875 10.04150508 -40.6875 15.25 C-37.67259443 16.25496852 -35.64568308 16.35335303 -32.5 16.3125 C-30.1178125 16.2815625 -30.1178125 16.2815625 -27.6875 16.25 C-27.6875 10.31 -27.6875 4.37 -27.6875 -1.75 C-30.54866754 -1.75 -31.98911629 -0.25057964 -34.08984375 1.55078125 Z M-23.6875 -1.75 C-23.6875 4.19 -23.6875 10.13 -23.6875 16.25 C-21.3053125 16.2809375 -21.3053125 16.2809375 -18.875 16.3125 C-17.53501953 16.32990234 -17.53501953 16.32990234 -16.16796875 16.34765625 C-13.55336209 16.36009967 -13.55336209 16.36009967 -10.6875 15.25 C-11.25169612 11.40259032 -12.32070248 8.83601559 -14.5 5.625 C-15.00144531 4.86960937 -15.50289062 4.11421875 -16.01953125 3.3359375 C-17.74014461 1.18416342 -19.36788542 -0.27259842 -21.6875 -1.75 C-22.3475 -1.75 -23.0075 -1.75 -23.6875 -1.75 Z M-47.6875 4 C-48.574375 4.51046875 -49.46125 5.0209375 -50.375 5.546875 C-52.76935832 7.31028755 -53.63914504 8.50998136 -54.6875 11.25 C-51.31652617 12.74821059 -49.48307881 13.25 -45.6875 13.25 C-44.84930842 11.62750059 -44.0170884 10.00191503 -43.1875 8.375 C-42.7234375 7.47007813 -42.259375 6.56515625 -41.78125 5.6328125 C-40.54844411 3.38403141 -40.54844411 3.38403141 -40.6875 1.25 C-43.56522637 1.25 -45.21958119 2.55081512 -47.6875 4 Z M-10.6875 1.25 C-9.09787341 5.28520597 -7.40517682 9.26811282 -5.6875 13.25 C-2.56459365 12.76421457 0.30830359 12.2513988 3.3125 11.25 C1.8368763 7.39325624 -0.15756893 6.03176265 -3.6875 4 C-4.574375 3.47921875 -5.46125 2.9584375 -6.375 2.421875 C-8.55275463 1.09932375 -8.55275463 1.09932375 -10.6875 1.25 Z " fill="#000000" transform="translate(75.6875,10.75)"/>
<path d="M0 0 C1.65 0 3.3 0 5 0 C5.99 2.31 6.98 4.62 8 7 C8.99 4.69 9.98 2.38 11 0 C12.98 0 14.96 0 17 0 C17.99 2.31 18.98 4.62 20 7 C20.99 4.69 21.98 2.38 23 0 C24.65 0 26.3 0 28 0 C26.98408579 5.46864457 25.92908943 10.76390013 24 16 C21.69 16 19.38 16 17 16 C16.34 13.03 15.68 10.06 15 7 C14.34 7 13.68 7 13 7 C12.34 9.97 11.68 12.94 11 16 C8.69 16 6.38 16 4 16 C3.32586789 14.08594633 2.6609668 12.16863974 2 10.25 C1.62875 9.18265625 1.2575 8.1153125 0.875 7.015625 C0 4 0 4 0 0 Z " fill="#000000" transform="translate(66,42)"/>
<path d="M0 0 C1.65 0 3.3 0 5 0 C5.99 2.31 6.98 4.62 8 7 C8.99 4.69 9.98 2.38 11 0 C12.98 0 14.96 0 17 0 C17.99 2.31 18.98 4.62 20 7 C20.99 4.69 21.98 2.38 23 0 C24.65 0 26.3 0 28 0 C26.98408579 5.46864457 25.92908943 10.76390013 24 16 C21.69 16 19.38 16 17 16 C16.34 13.03 15.68 10.06 15 7 C14.34 7 13.68 7 13 7 C12.34 9.97 11.68 12.94 11 16 C8.69 16 6.38 16 4 16 C3.32815382 13.89748139 2.66269032 11.79292237 2 9.6875 C1.443125 7.92986328 1.443125 7.92986328 0.875 6.13671875 C0 3 0 3 0 0 Z " fill="#000000" transform="translate(36,42)"/>
<path d="M0 0 C1.65 0 3.3 0 5 0 C5.99 2.31 6.98 4.62 8 7 C8.99 4.69 9.98 2.38 11 0 C12.98 0 14.96 0 17 0 C17.99 2.31 18.98 4.62 20 7 C20.99 4.69 21.98 2.38 23 0 C24.65 0 26.3 0 28 0 C26.84941444 5.39795989 25.57578241 10.70987333 24 16 C21.69 16 19.38 16 17 16 C16.34 13.03 15.68 10.06 15 7 C14.34 7 13.68 7 13 7 C12.34 9.97 11.68 12.94 11 16 C8.69 16 6.38 16 4 16 C3.32586789 14.08594633 2.6609668 12.16863974 2 10.25 C1.62875 9.18265625 1.2575 8.1153125 0.875 7.015625 C0 4 0 4 0 0 Z " fill="#000000" transform="translate(6,42)"/>
</svg>
