<?xml version="1.0" encoding="utf-8"?><!-- Uploaded to: SVG Repo, www.svgrepo.com, Generator: SVG Repo Mixer Tools -->
<svg fill="#000000" width="800px" height="800px" viewBox="0 0 24 24" id="gmail" data-name="Flat Color" xmlns="http://www.w3.org/2000/svg" class="icon flat-color"><path id="primary" d="M22,7.43V19a1,1,0,0,1-1,1H17a1,1,0,0,1-1-1V10.86a1,1,0,0,1,.35-.76l4-3.43a1,1,0,0,1,1.07-.15A1,1,0,0,1,22,7.43ZM3.65,6.67a1,1,0,0,0-1.07-.15A1,1,0,0,0,2,7.43V19a1,1,0,0,0,1,1H7a1,1,0,0,0,1-1V10.86a1,1,0,0,0-.35-.76Z" style="fill: rgb(0, 0, 0);"></path><path id="secondary" d="M20,4.32a3.38,3.38,0,0,0-3.66.51L12,8.56,7.65,4.83A3.42,3.42,0,0,0,2,7.43a1,1,0,0,0,.35.76l9,7.71a1,1,0,0,0,1.3,0l9-7.71A1,1,0,0,0,22,7.43,3.37,3.37,0,0,0,20,4.32Z" style="fill: rgb(44, 169, 188);"></path></svg>